<?xml version="1.0" encoding="iso-8859-1"?>
<!-- Generator: Adobe Illustrator 19.0.0, SVG Export Plug-In . SVG Version: 6.00 Build 0)  -->
<svg version="1.1" id="Capa_1" xmlns="http://www.w3.org/2000/svg" xmlns:xlink="http://www.w3.org/1999/xlink" x="0px" y="0px"
	 viewBox="0 0 496 496" style="enable-background:new 0 0 496 496;" xml:space="preserve">
<g>
	<path style="fill:#333333;" d="M419.936,352h-36.048v-16h25.752c8.448-16.536,21.824-29.912,38.36-38.36V272h16v35.936l-4.8,2.096
		c-16.672,7.296-29.872,20.496-37.168,37.168L419.936,352z"/>
	<path style="fill:#333333;" d="M496,0H0v384h264v112h27.84L320,460.808L348.16,496H376V384h120V0z M480,368H376v-8h-16v120h-4.16
		L328,445.192V400h-16v45.192L284.16,480H280V360h-16v8H16V16h464V368z"/>
	<path style="fill:#333333;" d="M448,86.36V256h16V76.064l-4.8-2.096c-16.672-7.296-29.872-20.496-37.168-37.168l-2.096-4.8H76.064
		l-2.096,4.8C66.672,53.472,53.472,66.672,36.8,73.968L32,76.064v231.872l4.8,2.096c16.672,7.296,29.872,20.496,37.168,37.168
		l2.096,4.8h180.048v-16H86.36c-8.448-16.536-21.824-29.912-38.36-38.36V86.36C64.536,77.912,77.912,64.536,86.36,48h323.28
		C418.088,64.536,431.464,77.912,448,86.36z"/>
	<path style="fill:#333333;" d="M168,80c-68.168,0-94.088,50.28-95.16,52.424L71.056,136l1.792,3.576
		C73.912,141.72,99.832,192,168,192s94.088-50.28,95.16-52.424l1.784-3.576l-1.792-3.576C262.088,130.28,236.168,80,168,80z
		 M208,136c0,22.056-17.944,40-40,40s-40-17.944-40-40s17.944-40,40-40S208,113.944,208,136z M89.28,136.024
		c3.92-6.016,13.496-18.432,30.2-27.864c-4.728,8.216-7.48,17.704-7.48,27.84c0,10.216,2.792,19.768,7.592,28.024
		C102.776,154.616,93.208,142.144,89.28,136.024z M216.52,163.84c4.728-8.216,7.48-17.704,7.48-27.84
		c0-10.216-2.792-19.768-7.592-28.016c16.832,9.408,26.392,21.896,30.32,28C242.808,141.984,233.224,154.408,216.52,163.84z"/>
	<rect x="280" y="96" style="fill:#333333;" width="152" height="16"/>
	<rect x="280" y="128" style="fill:#333333;" width="152" height="16"/>
	<rect x="280" y="160" style="fill:#333333;" width="120" height="16"/>
	<rect x="416" y="160" style="fill:#333333;" width="16" height="16"/>
</g>
<circle style="fill:#FFA64D;" cx="320" cy="296" r="88"/>
<path style="fill:#333333;" d="M320,352c-30.872,0-56-25.128-56-56s25.128-56,56-56s56,25.128,56,56S350.872,352,320,352z M320,256
	c-22.056,0-40,17.944-40,40s17.944,40,40,40s40-17.944,40-40S342.056,256,320,256z"/>
<g>
</g>
<g>
</g>
<g>
</g>
<g>
</g>
<g>
</g>
<g>
</g>
<g>
</g>
<g>
</g>
<g>
</g>
<g>
</g>
<g>
</g>
<g>
</g>
<g>
</g>
<g>
</g>
<g>
</g>
</svg>
