<?xml version="1.0" encoding="iso-8859-1"?>
<!-- Generator: Adobe Illustrator 19.0.0, SVG Export Plug-In . SVG Version: 6.00 Build 0)  -->
<svg version="1.1" id="Capa_1" xmlns="http://www.w3.org/2000/svg" xmlns:xlink="http://www.w3.org/1999/xlink" x="0px" y="0px"
	 viewBox="0 0 512 512" style="enable-background:new 0 0 512 512;" xml:space="preserve">
<g>
	<g>
		<path d="M464,32H352V16c0-8.832-7.168-16-16-16H176c-8.832,0-16,7.168-16,16v16H48c-8.832,0-16,7.168-16,16v448
			c0,8.832,7.168,16,16,16h416c8.848,0,16-7.168,16-16V48C480,39.168,472.848,32,464,32z M192,32h128v32H192V32z M128,64h32v16
			c0,8.832,7.168,16,16,16h160c8.832,0,16-7.168,16-16V64h32v352H128V64z M448,480H64V64h32v368c0,8.832,7.168,16,16,16h288
			c8.848,0,16-7.168,16-16V64h32V480z"/>
	</g>
</g>
<g>
	<g>
		<polygon points="272,176 272,144 240,144 240,176 208,176 208,208 240,208 240,240 272,240 272,208 304,208 304,176 		"/>
	</g>
</g>
<g>
	<g>
		<rect x="160" y="288" width="192" height="32"/>
	</g>
</g>
<g>
	<g>
		<rect x="160" y="352" width="192" height="32"/>
	</g>
</g>
<g>
</g>
<g>
</g>
<g>
</g>
<g>
</g>
<g>
</g>
<g>
</g>
<g>
</g>
<g>
</g>
<g>
</g>
<g>
</g>
<g>
</g>
<g>
</g>
<g>
</g>
<g>
</g>
<g>
</g>
</svg>
