<?xml version="1.0" encoding="utf-8"?>
<!-- Generator: Adobe Illustrator 16.0.0, SVG Export Plug-In . SVG Version: 6.00 Build 0)  -->
<!DOCTYPE svg PUBLIC "-//W3C//DTD SVG 1.1//EN" "http://www.w3.org/Graphics/SVG/1.1/DTD/svg11.dtd">
<svg version="1.1" id="Forma_1_1_" xmlns="http://www.w3.org/2000/svg" xmlns:xlink="http://www.w3.org/1999/xlink" x="0px" y="0px"
	 width="46px" height="46px" viewBox="0 0 46 46" enable-background="new 0 0 46 46" xml:space="preserve">
<g id="Forma_1">
	<g>
		<path fill-rule="evenodd" clip-rule="evenodd" fill="#002F6C" d="M2.249,24.136c0,0,0.773,1.093,3.044,1.903
			c0.011,0.004,0.019,0.006,0.031,0.01c0.183,0.673,0.396,1.333,0.65,1.974c0.721,0.13,1.477,0.278,2.265,0.454
			c-1.388-2.33-2.18-5.013-2.18-7.87c0-8.949,7.755-16.203,17.32-16.203c9.566,0,17.322,7.254,17.322,16.203
			c0,2.78-0.752,5.396-2.069,7.685c0.907-0.188,1.771-0.34,2.566-0.466c0.229-0.599,0.425-1.215,0.591-1.844
			c2.148-0.804,2.889-1.845,2.889-1.845c1.516-1.129,0.59-5.599,0.59-5.599c-0.515-1.745-1.448-2.809-2.339-3.454V5.362
			c1.219-0.283,2.126-1.357,2.126-2.645c0-1.501-1.234-2.719-2.76-2.719s-2.762,1.217-2.762,2.719c0,1.138,0.711,2.11,1.717,2.517
			v9.01c-0.113-0.033-0.205-0.057-0.286-0.076c-2.837-6.722-9.567-11.45-17.418-11.45c-7.837,0-14.556,4.71-17.403,11.412
			c-0.514,0.091-3.41,0.765-4.484,4.408C1.659,18.538,0.733,23.009,2.249,24.136z M23.001,38.513
			c-6.636-7.99-23.004-8.712-23.004-8.712v6.1c14.819,0.069,23.004,10.099,23.004,10.099v-0.001c0,0,8.185-10.029,23.004-10.099
			v-6.1C46.005,29.8,29.637,30.522,23.001,38.513z M23.285,8.284c-8.486,0-15.368,6.776-15.368,15.135
			c0,1.964,0.385,3.837,1.075,5.559c4.925,1.179,10.688,3.357,14.009,7.358v-0.001c3.466-4.172,9.579-6.361,14.634-7.502
			c0.656-1.682,1.019-3.505,1.019-5.415C38.653,15.061,31.773,8.284,23.285,8.284z M14.311,22.719c-0.953,0-1.725-0.76-1.725-1.697
			s0.772-1.697,1.725-1.697c0.951,0,1.723,0.76,1.723,1.697S15.262,22.719,14.311,22.719z M17.47,19.344
			c-1.466,0-2.654-1.171-2.654-2.614c0-1.444,1.188-2.614,2.654-2.614c1.466,0,2.656,1.17,2.656,2.614S18.937,19.344,17.47,19.344z"
			/>
	</g>
</g>
</svg>
