<?xml version="1.0" encoding="utf-8"?>
<!-- Generator: Adobe Illustrator 16.0.0, SVG Export Plug-In . SVG Version: 6.00 Build 0)  -->
<!DOCTYPE svg PUBLIC "-//W3C//DTD SVG 1.1//EN" "http://www.w3.org/Graphics/SVG/1.1/DTD/svg11.dtd">
<svg version="1.1" id="Forma_1_1_" xmlns="http://www.w3.org/2000/svg" xmlns:xlink="http://www.w3.org/1999/xlink" x="0px" y="0px"
	 width="43px" height="54px" viewBox="0 0 43 54" enable-background="new 0 0 43 54" xml:space="preserve">
<g id="Forma_1">
	<g>
		<path fill-rule="evenodd" clip-rule="evenodd" fill="#002F6C" d="M28.092,35.067c1-1.69,2.469-2.557,4.419-2.58
			c1.948-0.021,2.933-1.028,2.964-3.003c0.027-1.968,0.873-3.456,2.545-4.463c1.674-1.011,2.037-2.371,1.083-4.094
			c-0.949-1.719-0.949-3.437,0-5.159c0.954-1.718,0.593-3.076-1.083-4.088c-1.672-1.014-2.521-2.498-2.545-4.476
			c-0.031-1.967-1.016-2.972-2.964-2.996c-1.95-0.026-3.419-0.889-4.419-2.579c-0.998-1.695-2.342-2.062-4.04-1.097
			c-1.698,0.96-3.401,0.96-5.099,0c-1.7-0.963-3.044-0.599-4.042,1.097c-0.998,1.692-2.469,2.554-4.417,2.579
			C8.55,4.233,7.561,5.238,7.534,7.205c-0.031,1.978-0.878,3.46-2.549,4.476c-1.674,1.012-2.042,2.367-1.083,4.088
			c0.954,1.723,0.954,3.44,0,5.159c-0.958,1.723-0.593,3.085,1.083,4.094c1.671,1.007,2.521,2.495,2.549,4.463
			c0.027,1.975,1.016,2.981,2.959,3.003c1.95,0.023,3.418,0.89,4.419,2.58c0.999,1.696,2.342,2.062,4.04,1.092
			c1.698-0.951,3.401-0.951,5.099,0C25.75,37.129,27.096,36.764,28.092,35.067z M21.506,29.141c-5.892,0-10.665-4.833-10.665-10.796
			c0-5.958,4.773-10.789,10.665-10.789c5.888,0,10.662,4.831,10.662,10.789C32.168,24.308,27.395,29.141,21.506,29.141z
			 M10.322,34.071C8.274,34.071,8,33.106,8,33.106l-8.003,15.917l6.416-0.73l3.55,5.403c0,0,7.392-15.61,7.392-15.508
			C13.524,38.095,15.048,34.175,10.322,34.071z M34.9,33.729c-5.848,0.617-4.658,2.088-5.995,3.229
			c-1.538,1.659-3.461,1.335-3.461,1.335l9.025,15.715l2.222-5.82l6.311,0.833L34.9,33.729z M23.732,15.965l-2.23-4.572
			l-2.235,4.572l-4.994,0.738l3.61,3.563l-0.851,5.039l4.47-2.377l4.471,2.377l-0.852-5.039l3.609-3.563L23.732,15.965z"/>
	</g>
</g>
</svg>
