<?xml version="1.0" encoding="utf-8"?>
<!-- Generator: Adobe Illustrator 16.0.0, SVG Export Plug-In . SVG Version: 6.00 Build 0)  -->
<!DOCTYPE svg PUBLIC "-//W3C//DTD SVG 1.1//EN" "http://www.w3.org/Graphics/SVG/1.1/DTD/svg11.dtd">
<svg version="1.1" id="Forma_1_1_" xmlns="http://www.w3.org/2000/svg" xmlns:xlink="http://www.w3.org/1999/xlink" x="0px" y="0px"
	 width="56px" height="41px" viewBox="0 0 56 41" enable-background="new 0 0 56 41" xml:space="preserve">
<g id="Forma_1">
	<g>
		<path fill-rule="evenodd" clip-rule="evenodd" fill="#002F6C" d="M18.993,34.159c0.45-1.171,0.3-2.48-0.563-3.379
			c-0.775-0.804-1.908-1.016-2.988-0.766c0.302-1.084,0.135-2.238-0.645-3.053c-0.778-0.802-1.909-1.018-2.988-0.765
			c0.3-1.083,0.133-2.237-0.647-3.049c-1.222-1.27-3.335-1.215-4.724,0.126c-1.381,1.341-2.266,3.771-1.033,5.202
			c1.23,1.424,2.645,0.559,3.723,0.31c-0.3,1.083-1.199,2.09-0.092,3.507c1.106,1.418,2.645,0.558,3.724,0.311
			c-0.301,1.079-1.16,2.187-0.096,3.501c1.074,1.318,2.832,0.616,3.994,0.251c-0.448,1.166-1.408,2.424-0.175,3.833
			c1.231,1.42,4.075,0.764,5.464-0.579c1.386-1.342,1.519-3.468,0.3-4.741C21.404,33.996,20.15,33.792,18.993,34.159z M47.213,7.029
			c-1.394,0.297-2.268-0.44-2.268-0.44s-2.678-2.337-5.688-4.898c-2.444-2.085-3.727-2.003-5.507-1.044
			c-2.929,1.575-9.959,5.57-13.295,7.618c-1.231,0.697-2.092,1.646-2.092,3.043c0,1.801,2.292,4.165,5.058,2.675
			c1.463-0.72,4.965-2.567,7.329-3.828c2.574-1.377,4.177,0.216,4.177,0.216s9.298,9.361,11.915,11.9
			c1.696,1.651,4.037,0.886,4.783,0.791C52.372,22.966,56,22.243,56,22.243V5.08C56,5.08,50.634,6.297,47.213,7.029z M44.342,25.231
			c-10.043-10.168-5.319-5.384-10.724-10.866c0,0-1.624-1.637-3.765-0.687c-1.503,0.667-3.438,1.575-4.894,2.27
			c-1.6,0.849-2.75,1.112-3.292,1.107c-3.092-0.021-5.601-2.536-5.601-5.664c0-2.029,1.064-3.796,2.651-4.799
			c2.231-1.563,7.368-4.329,7.368-4.329s-1.565-2.008-4.993-2.008c-3.427,0-10.586,4.749-10.586,4.749S8.476,6.322,5.581,5.136
			L0,3.168v19.639c0,0,1.594,0.467,3.025,1.059c0.323-0.934,0.845-1.796,1.569-2.507c2.375-2.291,6.313-2.314,8.474-0.063
			c0.651,0.686,1.105,1.502,1.337,2.405c0.871,0.272,1.66,0.754,2.293,1.416c0.653,0.68,1.105,1.501,1.339,2.399
			c0.87,0.272,1.657,0.757,2.293,1.418c0.716,0.748,1.193,1.651,1.416,2.63c0.909,0.269,1.731,0.767,2.393,1.451
			c1.299,1.351,1.76,3.184,1.481,4.951c0.002,0,0.006,0,0.008,0.004c0.021,0.028,0.805,0.912,1.293,1.411
			c0.958,0.97,2.521,0.97,3.481,0c0.953-0.97,0.958-2.55,0-3.524c-0.035-0.034-3.455-3.656-3.179-3.937
			c0.273-0.279,4.63,4.311,4.711,4.395c0.956,0.969,2.519,0.969,3.479,0c0.958-0.97,0.955-2.55,0-3.522
			c-0.047-0.045-0.244-0.235-0.316-0.311c0,0-4.32-3.896-3.991-4.229c0.333-0.335,5.699,4.735,5.708,4.735
			c0.965,0.879,2.45,0.872,3.378-0.067c0.903-0.914,0.923-2.36,0.122-3.334c-0.018-0.052-4.09-4.361-3.771-4.685
			c0.322-0.328,4.352,3.872,4.36,3.881c0.954,0.969,2.519,0.969,3.479,0c0.956-0.969,0.956-2.55,0-3.526
			C44.371,25.249,44.354,25.239,44.342,25.231z"/>
	</g>
</g>
</svg>
