<?xml version="1.0" standalone="no"?>
<!DOCTYPE svg PUBLIC "-//W3C//DTD SVG 1.1//EN" "http://www.w3.org/Graphics/SVG/1.1/DTD/svg11.dtd" >
<svg>
<metadata>
Created by FontForge 20120731 at Fri Aug  9 15:57:06 2019
 By www
Bythebutterflycom
</metadata>
<defs>
<font id="DashNess" horiz-adv-x="432" >
  <font-face 
    font-family="DashNess"
    font-weight="500"
    font-stretch="normal"
    units-per-em="1000"
    panose-1="2 0 6 3 0 0 0 0 0 0"
    ascent="800"
    descent="-200"
    x-height="490"
    cap-height="661"
    bbox="-74 -211 828 701"
    underline-thickness="50"
    underline-position="-100"
    unicode-range="U+0020-007A"
  />
<missing-glyph horiz-adv-x="364" 
d="M66 33h199v600h-199v-600zM33 0v666h265v-666h-265z" />
    <glyph glyph-name=".notdef" horiz-adv-x="364" 
d="M66 33h199v600h-199v-600zM33 0v666h265v-666h-265z" />
    <glyph glyph-name=".null" horiz-adv-x="0" 
 />
    <glyph glyph-name="nonmarkingreturn" horiz-adv-x="333" 
 />
    <glyph glyph-name="space" unicode=" " horiz-adv-x="300" 
 />
    <glyph glyph-name="exclam" unicode="!" horiz-adv-x="159" 
d="M118 369h40l-1 -92h-40zM118 587h40l-1 -92h-40zM118 474h40l-1 -92h-40zM119 255h40l-1 -92h-40zM121 93h40l-1 -92h-40zM113 691h40l-1 -92h-40z" />
    <glyph glyph-name="parenleft" unicode="(" horiz-adv-x="243" 
d="M133 574l36 -16l-39 -84l-36 16zM85 456l38 -10l-21 -88l-38 10zM60 330h40v-92h-40v92zM95 47l38 12l29 -86l-38 -12zM204 693l34 -20l-47 -78l-34 20zM164 -99l34 20l46 -78l-34 -20zM67 187l40 4l11 -90l-40 -4z" />
    <glyph glyph-name="parenright" unicode=")" horiz-adv-x="215" 
d="M98 564l36 16l38 -84l-36 -16zM147 430l40 8l17 -88l-40 -8zM176 306h40v-92h-40v92zM137 55l38 -16l-34 -84l-38 16zM32 673l34 20l45 -77l-34 -20zM79 -71l36 -18l-40 -82l-36 18zM177 181l38 -10l-22 -87l-38 10z" />
    <glyph glyph-name="comma" unicode="," horiz-adv-x="145" 
d="M108 60l38 -10l-21 -88l-38 10z" />
    <glyph glyph-name="period" unicode="." horiz-adv-x="164" 
d="M57 101h40v-1h58v-1h10v-91h-16h-24h-67v2h-1v91z" />
    <glyph glyph-name="zero" unicode="0" horiz-adv-x="455" 
d="M87 450l-36 16l35 79l36 -16zM214 623v40l86 -2v-40zM198 -5v40l86 -2v-40zM84 228h-40v87h40v-87zM130 561l-26 30l65 56l26 -30zM103 121l-40 -8l-16 85l40 8zM181 43l-32 -24l-51 69l32 24zM452 219l-40 2l5 86l40 -2zM408 568l-32 -24l-51 69l32 24zM450 445l-40 -8
l-16 85l40 8zM84 335l-40 2l5 86l40 -2zM455 327h-40v87h40v-87zM408 98l-36 16l35 79l36 -16zM320 12l-26 30l65 56l26 -30z" />
    <glyph glyph-name="one" unicode="1" horiz-adv-x="300" 
d="M290 246h-40l1 87h40zM287 359l-40 2l3 87l40 -2zM289 469h-40l1 87h40zM294 11h-40l1 87h40zM298 585l-40 2l4 86l40 -2zM292 134h-40l1 87h40z" />
    <glyph glyph-name="two" unicode="2" horiz-adv-x="447" 
d="M80 463l-38 12l26 83l38 -12zM170 644l20 -36l-76 -42l-20 36zM325 51v-40l-87 -1v40zM425 577l-30 -26l-58 65l30 26zM444 446h-40l1 87h40zM375 328l-30 26l56 68l30 -26zM274 254l-24 32l71 52l24 -32zM165 190l-24 32l69 53l24 -32zM96 109l-36 20l42 76l36 -20z
M80 9h-40l1 87h40zM313 660l-2 -40l-86 4l2 40zM448 47v-40l-87 -1v40zM201 49v-40l-87 2v40z" />
    <glyph glyph-name="three" unicode="3" horiz-adv-x="456" 
d="M67 570l38 -14l-30 -82l-38 14zM171 658l24 -32l-71 -50l-24 32zM301 662v-40h-87v40h87zM324 307l22 32l71 -49l-22 -32zM396 547l40 -6l-14 -85l-40 6zM368 446l30 -26l-58 -65l-30 26zM306 376v-40l-87 -1v40zM409 244l40 4l9 -87l-40 -4zM395 43l-32 24l54 68l32 -24
zM273 -15l-12 38l83 27l12 -38zM149 -1l8 40l84 -18l-8 -40zM11 193l40 8l19 -84l-40 -8zM318 622l30 26l56 -66l-30 -26zM45 80l32 24l53 -67l-32 -24z" />
    <glyph glyph-name="four" unicode="4" horiz-adv-x="468" 
d="M360 462h-40l1 85h40zM355 239h-40l1 85h40zM357 356h-40l1 85h40zM359 5h-40l1 85h40zM358 124h-40l1 85h40zM116 319l-32 24l50 69l32 -24zM361 580h-40l1 85h40zM192 421l-32 24l50 69l32 -24zM42 222l-32 24l50 69l32 -24zM202 212v-40l-86 2v40zM257 513l-32 24
l50 69l32 -24zM297 212v-40l-86 2v40zM469 209v-40l-86 2v40zM99 210v-40l-86 2v40z" />
    <glyph glyph-name="five" unicode="5" horiz-adv-x="457" 
d="M305 647v-40l-86 2v40zM198 646v-40l-86 2v40zM95 413l-40 6l14 86l40 -6zM413 645v-40l-86 2v40zM80 317l-40 6l15 85l40 -6zM187 419l18 -36l-76 -41l-18 36zM421 342l-28 -30l-63 59l28 30zM114 510l-40 6l15 85l40 -6zM411 297l40 4l8 -86l-40 -4zM383 91l24 -32
l-68 -54l-24 32zM314 418l-4 -40l-86 10l4 40zM207 -12l-2 40l87 4l2 -40zM91 42l20 34l75 -43l-20 -34zM22 148l36 16l37 -79l-36 -16zM416 192l38 -12l-28 -82l-38 12z" />
    <glyph glyph-name="six" unicode="6" horiz-adv-x="458" 
d="M376 591l38 14l29 -81l-38 -14zM269 629l14 38l82 -30l-14 -38zM109 503l-38 16l33 81l38 -16zM320 371l26 30l65 -58l-26 -30zM95 161l-40 -8l-19 86l40 8zM161 598l-12 38l83 28l12 -38zM75 274l-40 2l4 88l40 -2zM162 64l-30 -26l-56 66l30 26zM268 35l-8 -40l-87 17
l8 40zM369 76l22 -34l-73 -48l-22 34zM82 388l-40 6l11 87l40 -6zM416 192l38 -12l-28 -82l-38 12zM210 371l-2 40l87 5l2 -40zM124 305l-26 30l65 57l26 -30zM401 302l40 8l19 -85l-40 -8z" />
    <glyph glyph-name="seven" unicode="7" horiz-adv-x="464" 
d="M131 603v40l88 -2v-40zM254 606v40l88 -2v-40zM377 608v40l88 -2v-40zM329 411l-34 22l49 73l34 -22zM17 605v40l88 -2v-40zM274 310l-36 18l39 79l36 -18zM226 211l-36 16l35 82l36 -16zM192 118l-38 12l27 84l38 -12zM169 16l-40 6l13 87l40 -6zM391 499l-32 24l54 70
l32 -24z" />
    <glyph glyph-name="eight" unicode="8" horiz-adv-x="441" 
d="M89 454l-40 2l3 91l40 -2zM173 384l-28 -30l-67 62l28 30zM290 383v-40h-93v40h93zM429 449l-40 2l3 91l40 -2zM379 439l26 -30l-70 -60l-26 30zM292 660l-2 -40l-92 4l2 40zM429 274l-30 -26l-60 69l30 26zM300 34v-40h-93v40h93zM405 114l28 -30l-68 -64l-28 30z
M403 222l40 -2l-3 -93l-40 2zM155 648l26 -30l-70 -60l-26 30zM408 584l-28 -30l-67 62l28 30zM121 341l30 -26l-60 -70l-30 26zM38 220l40 -2l-3 -93l-40 2zM154 44l-28 -30l-67 62l28 30z" />
    <glyph glyph-name="nine" unicode="9" horiz-adv-x="446" 
d="M209 27l-16 -36l-84 37l16 36zM318 60l16 -36l-85 -36l-16 36zM383 163l34 -22l-49 -77l-34 22zM408 275l40 -8l-18 -90l-40 8zM376 538l38 10l22 -89l-38 -10zM116 77l-34 -20l-46 79l34 20zM298 622l26 30l68 -60l-26 -30zM184 628v40l91 -2v-40zM129 649l30 -26
l-60 -69l-30 26zM39 535l40 -4l-10 -91l-40 4zM33 391l36 18l42 -82l-36 -18zM131 259l10 38l89 -21l-10 -38zM296 258l-20 34l79 48l20 -34zM406 408h40l-1 -92h-40z" />
    <glyph glyph-name="question" unicode="?" horiz-adv-x="455" 
d="M114 511l-36 16l38 83l36 -16zM168 618l-16 36l84 35l16 -36zM282 658l14 38l86 -30l-14 -38zM454 540l-38 -14l-31 86l38 14zM426 408l-38 14l31 86l38 -14zM323 307l-30 26l61 68l30 -26zM295 204h-40v91h40v-91zM282 8h-40v91h40v-91z" />
    <glyph glyph-name="A" unicode="A" horiz-adv-x="594" 
d="M107 120l-38 14l31 82l38 -14zM153 236l-38 14l31 82l38 -14zM197 354l-38 14l31 82l38 -14zM247 474l-38 14l31 82l38 -14zM290 581l-38 14l31 82l38 -14zM359 521l38 14l31 -83l-38 -14zM61 1l-38 14l31 82l38 -14zM404 411l38 14l31 -83l-38 -14zM446 302l38 14
l31 -83l-38 -14zM485 193l38 14l31 -83l-38 -14zM527 85l38 14l31 -83l-38 -14zM358 266v-40l-90 1v40zM321 628l38 14l31 -83l-38 -14zM455 264v-40l-90 1v40zM258 266v-40l-90 1v40z" />
    <glyph glyph-name="B" unicode="B" horiz-adv-x="569" 
d="M147 678l90 -1v-40l-90 1v40zM236 384v-40l-90 1v40zM339 382v-40l-90 1v40zM445 381v-40l-90 1v40zM493 481l32 -22l-51 -73l-32 22zM495 587h40v-90h-40v90zM388 639l18 36l89 -45l-18 -36zM364 680v-40l-90 1v40zM115 472h-40l1 91h40zM117 354h-40l1 91h40zM120 237
h-40l1 91h40zM116 116h-40l1 91h40zM116 4h-40l1 91h40zM124 585h-40l1 91h40zM235 57v-40l-90 1v40zM358 59v-40l-90 1v40zM462 85l16 -36l-83 -35l-16 36zM534 164l32 -24l-50 -71l-32 24zM531 256h40l-1 -86h-40zM549 293l-28 -28l-66 66l28 28z" />
    <glyph glyph-name="C" unicode="C" horiz-adv-x="604" 
d="M598 515l-36 -18l-40 81l36 18zM524 630l-26 -32l-70 57l26 32zM398 698v-40l-90 1v40zM258 682l18 -36l-80 -42l-18 36zM135 605l34 -20l-47 -77l-34 20zM62 484l40 -2l-4 -89l-40 2zM52 353l40 2l6 -89l-40 -2zM138 158l-36 -16l-37 81l36 16zM227 65l-26 -32l-70 57
l26 32zM342 36l-8 -40l-88 18l8 40zM447 52l10 -38l-87 -23l-10 38zM510 135l32 -24l-55 -70l-32 24zM563 140l-36 18l43 80l36 -18z" />
    <glyph glyph-name="D" unicode="D" horiz-adv-x="603" 
d="M356 676v-40l-90 1v40zM475 639l-16 -36l-82 37l16 36zM560 540l-32 -24l-54 72l32 24zM594 413l-38 -10l-21 86l38 10zM603 279h-40l2 89h40zM564 257l36 -16l-36 -83l-36 16zM525 151l28 -28l-65 -62l-28 28zM439 77l12 -38l-86 -25l-12 38zM335 58v-40l-90 1v40z
M228 55v-40l-90 1v40zM116 477h-40v90h40v-90zM237 677v-40l-90 1v40zM117 359h-40v90h40v-90zM112 244h-40v90h40v-90zM114 132h-40v90h40v-90zM119 19h-40v90h40v-90zM120 584h-40v90h40v-90z" />
    <glyph glyph-name="E" unicode="E" horiz-adv-x="565" 
d="M116 359h-40v90h40v-90zM117 471h-40v90h40v-90zM117 243h-40v90h40v-90zM118 130h-40v90h40v-90zM119 15h-40v90h40v-90zM340 676v-40l-90 -1v40zM120 584h-40v90h40v-90zM447 675v-40l-90 -1v40zM549 677v-40l-90 -1v40zM232 372v-40l-90 -1v40zM335 371v-40l-90 -1v40
zM438 374v-40l-90 -1v40zM538 375v-40l-90 -1v40zM239 61v-40l-90 -1v40zM346 61v-40l-90 -1v40zM454 61v-40l-90 -1v40zM566 63v-40l-90 -1v40zM240 674v-40l-90 -1v40z" />
    <glyph glyph-name="F" unicode="F" horiz-adv-x="542" 
d="M543 671v-40l-90 -1v40zM79 549h40v-90h-40v90zM435 670v-40h-90v40h90zM331 670v-40l-90 -1v40zM237 376v-40l-91 -1v40zM80 219h40v-90h-40v90zM81 329h40v-90h-40v90zM77 438h40v-90h-40v90zM79 102h40v-90h-40v90zM78 666h40v-90h-40v90zM346 376v-40l-91 -1v40z
M458 376v-40l-91 -1v40zM224 669v-40l-91 -1v40z" />
    <glyph glyph-name="G" unicode="G" horiz-adv-x="604" 
d="M598 515l-36 -18l-40 81l36 18zM524 630l-26 -32l-70 57l26 32zM398 698v-40l-90 1v40zM258 682l18 -36l-80 -42l-18 36zM135 605l34 -20l-47 -77l-34 20zM62 484l40 -2l-4 -89l-40 2zM52 353l40 2l6 -89l-40 -2zM138 158l-36 -16l-37 81l36 16zM227 65l-26 -32l-70 57
l26 32zM342 36l-8 -40l-88 18l8 40zM447 52l10 -38l-87 -23l-10 38zM510 135l32 -24l-55 -70l-32 24zM597 260h-40l-2 91h40zM538 346v-40h-91v40h91zM427 349l-2 -40l-92 3l2 40zM563 140l-36 18l43 80l36 -18z" />
    <glyph glyph-name="H" unicode="H" horiz-adv-x="569" 
d="M79 549h40v-90h-40v90zM224 391v-40l-91 -1v40zM80 219h40v-90h-40v90zM81 329h40v-90h-40v90zM77 438h40v-90h-40v90zM529 663h40v-90h-40v90zM520 389v-40l-89 1v40zM324 391v-40l-91 -1v40zM421 392v-40l-91 -1v40zM78 666h40v-90h-40v90zM529 549h40v-90h-40v90z
M529 435h40v-90h-40v90zM529 327h40v-90h-40v90zM530 221h40v-90h-40v90zM529 106h40v-90h-40v90zM79 102h40v-90h-40v90z" />
    <glyph glyph-name="I" unicode="I" horiz-adv-x="136" 
d="M84 661h40v-90h-40v90zM89 548h40v-90h-40v90zM90 438h40v-90h-40v90zM91 330h40v-90h-40v90zM96 217h40v-90h-40v90zM97 106h40v-90h-40v90z" />
    <glyph glyph-name="J" unicode="J" horiz-adv-x="362" 
d="M323 682h40v-90h-40v90zM321 572h40v-90h-40v90zM321 456h40v-90h-40v90zM322 338h40v-90h-40v90zM314 213h40v-90h-40v90zM236 32v-40l-91 -1v40zM125 37l-26 -30l-70 58l26 30zM16 201h40l-2 -91h-40zM304 107l32 -24l-54 -73l-32 24z" />
    <glyph glyph-name="K" unicode="K" horiz-adv-x="576" 
d="M69 95h40v-91h-40v91zM71 199h40v-91h-40v91zM69 303h40v-91h-40v91zM70 502h40v-91h-40v91zM68 600h40v-91h-40v91zM68 700h40v-91h-40v91zM485 701l28 -28l-65 -64l-28 28zM325 543l28 -28l-65 -64l-28 28zM248 470l30 -28l-62 -67l-30 28zM176 395l30 -28l-67 -73
l-29 27v-8h-40v91h40v-82zM389 272l-32 -24l-54 74l32 24zM403 619l28 -28l-65 -64l-28 28zM452 191l-32 -24l-54 74l32 24zM514 106l-32 -24l-54 74l32 24zM577 24l-32 -24l-54 74l32 24zM329 351l-32 -24l-54 74l32 24z" />
    <glyph glyph-name="L" unicode="L" horiz-adv-x="516" 
d="M320 44v-40l-91 1v40zM115 607h-40v90h40v-90zM115 202h-40v91h40v-91zM113 300h-40v91h40v-91zM116 101h-40v91h40v-91zM112 406h-40v90h40v-90zM120 1h-40v91h40v-91zM114 505h-40v91h40v-91zM420 45v-40l-91 1v40zM517 44v-40l-91 1v40zM219 46v-40l-91 1v40z" />
    <glyph glyph-name="M" unicode="M" horiz-adv-x="672" 
d="M113 463h-40l1 92h40zM673 468h-40l1 92h40zM114 120h-40l1 92h40zM116 234h-40l1 92h40zM116 350h-40l1 92h40zM291 348l-38 -14l-33 85l38 14zM116 585h-40l1 92h40zM384 133l-36 -16l-37 83l36 16zM199 562l-38 -16l-34 84l38 16zM247 456l-36 -16l-37 83l36 16z
M429 26l-36 -16l-37 83l36 16zM485 200l-38 12l28 88l38 -12zM336 226l-36 -16l-37 83l36 16zM521 314l-38 12l28 88l38 -12zM560 423l-38 12l28 88l38 -12zM595 532l-38 12l28 88l38 -12zM445 83l-38 12l28 88l38 -12zM107 3h-40l1 92h40zM669 348h-40l1 92h40zM670 233
h-40l1 92h40zM668 122h-40l1 92h40zM673 10h-40l1 92h40zM671 589h-40l1 92h40z" />
    <glyph glyph-name="N" unicode="N" horiz-adv-x="475" 
d="M113 463h-40l1 92h40zM114 120h-40l1 92h40zM116 234h-40l1 92h40zM116 350h-40l1 92h40zM310 357l-34 -20l-46 79l34 20zM469 122h-40v30l-33 -20l-47 79l34 20l46 -77l1 60h40zM201 565l-36 -18l-41 81l36 18zM250 461l-34 -20l-46 78l34 20zM369 256l-34 -20l-46 78
l34 20zM110 10h-40l1 92h40zM114 571h-40l1 92h40zM469 226h-40l1 92h40zM472 336h-40l1 92h40zM469 442h-40l1 92h40zM467 550h-40l1 92h40zM476 2h-40l1 92h40z" />
    <glyph glyph-name="O" unicode="O" horiz-adv-x="676" 
d="M323 651v40l91 -2v-40zM216 609l-20 36l80 44l20 -36zM132 531l-30 26l60 68l30 -26zM87 434l-38 14l29 80l38 -14zM87 318h-40l1 92h40zM112 194l-38 -10l-23 87l38 10zM188 97l-30 -26l-61 67l30 26zM187 44l20 34l78 -47l-20 -34zM320 -9v40l91 -2v-40zM454 -5l-20 36
l80 44l20 -36zM561 63l-30 26l60 68l30 -26zM646 174l-38 14l29 80l38 -14zM677 297h-40l1 92h40zM677 429l-38 -10l-23 87l38 10zM626 553l-30 -26l-61 67l30 26zM436 654l20 34l78 -47l-20 -34z" />
    <glyph glyph-name="P" unicode="P" horiz-adv-x="561" 
d="M83 554h40l-1 -91h-40zM84 433h40l-1 -91h-40zM81 312h40l-1 -91h-40zM81 204h40l-1 -91h-40zM81 98h40l-1 -91h-40zM384 354v-40h-91v40h91zM85 679h40l-1 -91h-40zM246 674v-40h-91v40h91zM557 521l-38 -14l-32 85l38 14zM517 391l-34 20l45 79l34 -20zM479 400l20 -34
l-77 -46l-20 34zM488 634l-16 -36l-83 35l16 36zM250 356v-40h-91v40h91zM361 677v-40h-91v40h91z" />
    <glyph glyph-name="Q" unicode="Q" horiz-adv-x="676" 
d="M323 651v40l91 -2v-40zM216 609l-20 36l80 44l20 -36zM132 531l-30 26l60 68l30 -26zM87 434l-38 14l29 80l38 -14zM87 318h-40l1 92h40zM112 194l-38 -10l-23 87l38 10zM188 97l-30 -26l-61 67l30 26zM187 44l20 34l78 -47l-20 -34zM320 -9v40l91 -2v-40zM454 -5l-20 36
l80 44l20 -36zM658 -6l-26 -30l-69 57l26 30zM646 174l-38 14l29 80l38 -14zM677 297h-40l1 92h40zM677 429l-38 -10l-23 87l38 10zM626 553l-30 -26l-61 67l30 26zM436 654l20 34l78 -47l-20 -34zM561 63l-30 26l60 68l30 -26zM518 117l-26 -30l-69 57l26 30z" />
    <glyph glyph-name="R" unicode="R" horiz-adv-x="581" 
d="M83 554h40l-1 -91h-40zM84 433h40l-1 -91h-40zM81 312h40l-1 -91h-40zM81 204h40l-1 -91h-40zM81 98h40l-1 -91h-40zM384 354v-40h-91v40h91zM85 679h40l-1 -91h-40zM246 674v-40h-91v40h91zM552 252l-32 -26l-57 70l32 26zM517 391l-34 20l45 79l34 -20zM479 400l20 -34
l-77 -46l-20 34zM488 634l-16 -36l-83 35l16 36zM250 356v-40h-91v40h91zM361 677v-40h-91v40h91zM580 129l-40 -8l-17 90l40 8zM583 9h-40l-1 92h40zM557 521l-38 -14l-32 85l38 14z" />
    <glyph glyph-name="S" unicode="S" horiz-adv-x="541" 
d="M470 630l-24 -32l-71 56l24 32zM343 696v-40l-91 2v40zM148 595l-24 32l72 54l24 -32zM100 493l-38 10l22 87l38 -10zM172 404l-26 -30l-69 59l26 30zM291 371l-12 -38l-86 26l12 38zM415 337l-12 -38l-86 27l12 38zM528 257l-28 -30l-67 62l28 30zM535 119l-40 4l8 90
l40 -4zM438 11l-28 30l66 62l28 -30zM389 31v-40l-91 -1v40zM275 26l-16 -36l-82 35l16 36zM173 59l-32 -24l-54 72l32 24zM107 133l-40 -4l-7 90l40 4zM515 508l-40 -4l-7 90l40 4z" />
    <glyph glyph-name="T" unicode="T" horiz-adv-x="547" 
d="M294 212h-40l2 91h40zM291 112h-40l2 91h40zM291 315h-40l2 90h40zM291 6l-40 2l3 89l40 -2zM293 415h-40l2 91h40zM209 674v-40h-92v40h92zM294 519h-40l2 91h40zM328 677v-40h-92v40h92zM439 677v-40h-92v40h92zM548 677v-40h-92v40h92zM97 672v-40h-92v40h92z" />
    <glyph glyph-name="U" unicode="U" horiz-adv-x="577" 
d="M576 241h-40l-1 91h40zM118 367h-40l-1 91h40zM119 486h-40l-1 91h40zM564 123l-40 6l15 91l40 -6zM213 50l-30 -26l-61 67l30 26zM323 27l-8 -40l-90 18l8 40zM432 41l6 -40l-89 -15l-6 40zM480 11l-28 28l65 64l28 -28zM121 601h-40l-1 91h40zM135 135l-40 -8l-16 90
l40 8zM577 361h-40l-1 91h40zM577 482h-40l-1 91h40zM577 597h-40l-1 91h40zM120 253h-40l-1 91h40z" />
    <glyph glyph-name="V" unicode="V" horiz-adv-x="557" 
d="M142 476l-36 -16l-36 84l36 16zM186 368l-36 -16l-36 84l36 16zM282 147l-36 -16l-36 84l36 16zM234 259l-36 -16l-36 84l36 16zM327 29l-36 -16l-36 84l36 16zM95 577l-36 -16l-36 84l36 16zM425 260l-38 12l29 85l38 -12zM355 54l-38 12l27 87l38 -12zM456 360l-38 12
l29 85l38 -12zM494 463l-38 12l29 85l38 -12zM530 559l-38 12l29 85l38 -12zM391 163l-38 12l29 85l38 -12z" />
    <glyph glyph-name="W" unicode="W" horiz-adv-x="826" 
d="M125 468l-38 -12l-30 88l38 12zM160 365l-38 -14l-32 84l38 14zM249 155l-36 -16l-36 84l36 16zM210 262l-36 -18l-40 82l36 18zM282 37l-38 -10l-22 90l38 10zM87 566l-38 -14l-35 87l38 14zM363 327l-38 12l29 85l38 -12zM299 116l-38 12l27 87l38 -12zM393 431l-38 12
l29 85l38 -12zM425 531l-38 12l29 85l38 -12zM552 392l-38 -12l-27 87l38 12zM332 225l-38 12l29 85l38 -12zM590 279l-38 -12l-29 85l38 12zM629 174l-38 -12l-29 85l38 12zM666 73l-38 -14l-32 86l38 14zM718 119l-40 8l19 88l40 -8zM515 507l-38 -14l-30 86l38 14z
M740 227l-40 8l19 88l40 -8zM762 326l-40 8l19 88l40 -8zM787 432l-40 8l19 88l40 -8zM809 533l-40 8l19 88l40 -8zM699 17l-40 8l19 88l40 -8z" />
    <glyph glyph-name="X" unicode="X" horiz-adv-x="573" 
d="M214 521l-32 -24l-54 72l32 24zM288 425l-32 -24l-54 72l32 24zM360 325l-32 -24l-54 72l32 24zM431 222l-32 -24l-54 72l32 24zM502 120l-32 -24l-54 72l32 24zM574 25l-32 -24l-54 72l32 24zM419 488l-34 22l49 73l34 -22zM146 617l-32 -24l-54 72l32 24zM484 585
l-34 22l49 73l34 -22zM238 235l-34 22l49 73l34 -22zM163 121l-34 22l49 73l34 -22zM89 14l-34 22l49 73l34 -22zM354 392l-34 22l49 73l34 -22z" />
    <glyph glyph-name="Y" unicode="Y" horiz-adv-x="591" 
d="M358 325l-34 22l49 73l34 -22zM419 416l-34 22l49 73l34 -22zM483 507l-34 22l49 73l34 -22zM544 591l-34 22l49 73l34 -22zM231 431l-32 -24l-51 72l32 24zM102 617l-32 -24l-51 72l32 24zM329 118h-40v88h40v-88zM296 341l-32 -24l-51 72l32 24zM169 524l-32 -24
l-51 72l32 24zM329 7h-40v88h40v-88zM327 222h-40v88h40v-88z" />
    <glyph glyph-name="Z" unicode="Z" horiz-adv-x="544" 
d="M329 670v-40l-87 -1v40zM432 672v-40l-87 1v40zM104 44v-40l-87 1v40zM227 671v-40l-87 1v40zM401 535l32 -24l-54 -69l-32 24zM126 671v-40l-87 1v40zM330 442l32 -26l-57 -71l-32 26zM255 348l30 -26l-57 -66l-30 26zM175 254l30 -26l-57 -66l-30 26zM91 153l30 -26
l-57 -66l-30 26zM474 622l32 -26l-54 -67l-32 26zM322 44v-40l-87 1v40zM537 672v-40l-87 1v40zM430 42v-40l-87 1v40zM545 43v-40l-87 1v40zM211 43v-40l-87 1v40z" />
    <glyph glyph-name="a" unicode="a" horiz-adv-x="458" 
d="M98 459l34 -20l-43 -76l-34 20zM233 511l8 -40l-86 -18l-8 40zM358 477l-10 -38l-84 22l10 38zM367 427l40 2l3 -85l-40 -2zM370 308l40 -2l-4 -86l-40 2zM369 195l40 -4l-7 -86l-40 4zM368 61l26 30l65 -57l-26 -30zM302 85l20 -36l-76 -42l-20 36zM110 52l-34 -20
l-45 75l34 20zM85 236l32 -26l-55 -68l-32 26zM208 278l6 -40l-86 -12l-6 40zM331 306l8 -40l-85 -19l-8 40zM215 44v-40l-87 1v40z" />
    <glyph glyph-name="b" unicode="b" horiz-adv-x="447" 
d="M52 102h40v-87h-40v87zM51 216h40v-87h-40v87zM47 327h40v-87h-40v87zM49 438h40v-87h-40v87zM46 545h40v-87h-40v87zM52 656h40v-87h-40v87zM153 477l32 -26l-55 -68l-32 26zM307 497l-2 -40l-86 3l2 40zM343 449l32 24l51 -70l-32 -24zM408 232h40v-87h-40v87zM406 127
l30 -26l-57 -66l-30 26zM332 45v-40h-87v40h87zM206 46l-22 -32l-71 49l22 32zM405 350h40v-87h-40v87z" />
    <glyph glyph-name="c" unicode="c" horiz-adv-x="413" 
d="M347 429l38 14l30 -82l-38 -14zM257 488l20 34l75 -45l-20 -34zM143 442l-16 36l79 33l16 -36zM39 314l40 -2l-3 -87l-40 2zM79 437l38 -12l-28 -82l-38 12zM35 189l38 14l31 -82l-38 -14zM106 40l14 38l81 -32l-14 -38zM244 -9l-16 36l78 34l16 -36zM376 155l34 -22
l-46 -74l-34 22z" />
    <glyph glyph-name="d" unicode="d" 
d="M389 594h40v-87h-40v87zM390 492h40v-87h-40v87zM259 449l16 36l80 -36l-16 -36zM392 295h40v-87h-40v87zM390 694h40v-87h-40v87zM393 202h40v-87h-40v87zM390 104h40v-87h-40v87zM390 394h40v-87h-40v87zM157 444l-6 40l85 13l6 -40zM35 342l40 -2l-4 -87l-40 2z
M31 208l40 8l17 -85l-40 -8zM69 71l26 30l67 -56l-26 -30zM260 47l2 -40l-86 -4l-2 40zM347 106l26 -30l-64 -58l-26 30zM106 459l34 -20l-45 -74l-34 20z" />
    <glyph glyph-name="e" unicode="e" horiz-adv-x="470" 
d="M273 278v-40h-87v40h87zM172 277v-40h-87v40h87zM373 277v-40h-87v40h87zM74 400l38 -14l-29 -79l-38 14zM323 453l28 28l61 -63l-28 -28zM212 456v40l88 -2v-40zM167 490l24 -32l-68 -54l-24 32zM471 281v-40h-87v40h87zM27 277l40 2l4 -86l-40 -2zM41 147l34 22l45 -72
l-34 -22zM107 48l20 34l73 -42l-20 -34zM231 -5l-4 40l86 7l4 -40zM402 115l28 -28l-60 -60l-28 28zM401 382l40 4l8 -85l-40 -4z" />
    <glyph glyph-name="f" unicode="f" horiz-adv-x="223" 
d="M81 511h40v-87h-40v87zM88 300h40l-2 -87h-40zM83 98h40l-1 -87h-40zM83 405h40v-87h-40v87zM84 624h40v-87h-40v87zM204 685l10 -38l-85 -24l-10 38zM138 453v40l86 1v-40zM-25 453l2 40l84 -5l-2 -40zM84 199h40v-87h-40v87z" />
    <glyph glyph-name="g" unicode="g" horiz-adv-x="450" 
d="M336 428l38 14l30 -82l-38 -14zM257 488l20 34l75 -45l-20 -34zM143 442l-16 36l79 33l16 -36zM39 314l40 -2l-3 -87l-40 2zM79 437l38 -12l-28 -82l-38 12zM35 189l38 14l31 -82l-38 -14zM106 40l14 38l81 -32l-14 -38zM244 -9l-16 36l78 34l16 -36zM407 375h40l-1 -87
h-40zM355 152l36 -18l-39 -77l-36 18zM400 171h40l-1 -87h-40zM393 63h40l-1 -87h-40zM405 277h40l-1 -87h-40zM337 -140l12 -38l-83 -26l-12 38zM412 487h40l-1 -87h-40zM224 -173l-12 -38l-83 26l12 38zM38 -99l32 24l52 -70l-32 -24zM388 -43l38 -14l-32 -81l-38 14z" />
    <glyph glyph-name="h" unicode="h" 
d="M64 290h40l-2 -88h-40zM64 190h40l-2 -88h-40zM64 393h40l-2 -88h-40zM66 494h40l-2 -88h-40zM70 593h40l-2 -88h-40zM70 693h40l-2 -88h-40zM160 472l32 -24l-55 -69l-32 24zM292 516l8 -40l-88 -16l-8 40zM320 472l26 30l67 -57l-26 -30zM389 404l40 2l5 -87l-40 -2z
M392 298h40l-2 -88h-40zM394 197h40l-2 -88h-40zM390 91h40l-2 -88h-40zM66 93l40 -2l-4 -87l-40 2z" />
    <glyph glyph-name="i" unicode="i" horiz-adv-x="108" 
d="M63 295h40l-2 -88h-40zM61 198h40l-2 -88h-40zM66 399h40l-2 -89h-40zM70 498h40l-2 -88h-40zM67 696h40l-2 -88h-40zM63 98h40l-2 -88h-40z" />
    <glyph glyph-name="j" unicode="j" horiz-adv-x="111" 
d="M63 295h40l-2 -88h-40zM61 198h40l-2 -88h-40zM66 399h40l-2 -89h-40zM70 498h40l-2 -88h-40zM67 696h40l-2 -88h-40zM83 -108l30 -28l-61 -65l-30 28zM57 -9h40v-89h-40v89zM-74 -196l2 40l87 -5l-2 -40zM61 100h40v-89h-40v89z" />
    <glyph glyph-name="k" unicode="k" horiz-adv-x="407" 
d="M63 295h40l-2 -88h-40zM61 198h40l-2 -88h-40zM67 601h40l-2 -89h-40zM70 498h40l-2 -88h-40zM67 696h40l-2 -88h-40zM63 98h40l-2 -88h-40zM265 408l30 -26l-60 -66l-30 26zM66 399h40l-2 -89h-40zM349 493l30 -26l-60 -66l-30 26zM268 169l34 22l47 -75l-34 -22z
M166 321l30 -26l-60 -66l-30 26zM328 74l34 22l47 -75l-34 -22zM208 259l34 22l47 -75l-34 -22z" />
    <glyph glyph-name="l" unicode="l" horiz-adv-x="108" 
d="M63 295h40l-2 -88h-40zM61 198h40l-2 -88h-40zM66 399h40l-2 -89h-40zM70 498h40l-2 -88h-40zM67 600h40l-2 -88h-40zM63 98h40l-2 -88h-40zM67 696h40l-2 -88h-40z" />
    <glyph glyph-name="m" unicode="m" horiz-adv-x="706" 
d="M63 295h40l-2 -88h-40zM61 198h40l-2 -88h-40zM66 399h40l-2 -89h-40zM70 498h40l-2 -88h-40zM370 305h40l-2 -88h-40zM63 98h40l-2 -88h-40zM365 96h40l-2 -88h-40zM372 424h40l-2 -88h-40zM447 396l-30 26l59 65l30 -26zM618 462l30 26l58 -67l-30 -26zM511 472l2 40
l87 -4l-2 -40zM668 390h40l-2 -88h-40zM294 471l20 34l76 -45l-20 -34zM205 454l-8 40l85 19l8 -40zM139 376l-30 26l56 68l30 -26zM668 292h40l-2 -88h-40zM668 194h40l-2 -88h-40zM665 93h40l-2 -88h-40zM366 197h40l-2 -88h-40z" />
    <glyph glyph-name="n" unicode="n" horiz-adv-x="427" 
d="M63 295h40l-2 -88h-40zM61 198h40l-2 -88h-40zM66 399h40l-2 -89h-40zM70 498h40l-2 -88h-40zM389 314h40l-2 -88h-40zM63 98h40l-2 -88h-40zM389 92h40l-2 -88h-40zM381 420l40 2l3 -87l-40 -2zM294 471l20 34l76 -45l-20 -34zM205 454l-8 40l85 19l8 -40zM139 376
l-30 26l56 68l30 -26zM388 198h40l-2 -88h-40z" />
    <glyph glyph-name="o" unicode="o" horiz-adv-x="461" 
d="M359 426l32 22l50 -72l-32 -22zM256 479l14 38l82 -29l-14 -38zM143 442l-16 36l79 33l16 -36zM418 335l40 -2l-3 -87l-40 2zM79 437l38 -12l-28 -82l-38 12zM35 189l38 14l31 -82l-38 -14zM106 40l14 38l81 -32l-14 -38zM237 -2l-8 40l83 17l8 -40zM389 129l30 -26
l-55 -67l-30 26zM425 231l38 -14l-29 -82l-38 14zM39 314l40 -2l-3 -87l-40 2z" />
    <glyph glyph-name="p" unicode="p" horiz-adv-x="461" 
d="M359 426l32 22l50 -72l-32 -22zM256 479l14 38l82 -29l-14 -38zM153 411l-20 34l74 42l20 -34zM418 335l40 -2l-3 -87l-40 2zM61 491h40v-86h-40v86zM53 27h40l1 -88h-40zM124 65l24 32l70 -53l-24 -32zM237 -2l-8 40l83 17l8 -40zM389 129l30 -26l-55 -67l-30 26z
M425 231l38 -14l-29 -82l-38 14zM60 263l40 -2l-3 -87l-40 2zM61 379h40l2 -88h-40zM53 -90h40l1 -88h-40zM53 145h40l2 -87h-40z" />
    <glyph glyph-name="q" unicode="q" 
d="M392 504h40l1 -88h-40zM391 406h40l1 -88h-40zM390 309h40l1 -88h-40zM391 212h40l1 -88h-40zM391 112h40l1 -88h-40zM391 9h40l1 -88h-40zM393 -91h40l1 -88h-40zM266 462l24 32l70 -52l-24 -32zM165 448l-6 40l81 13l6 -40zM106 457l32 -24l-51 -72l-32 24zM43 349
l40 -2l-6 -87l-40 2zM30 229l40 8l18 -87l-40 -8zM67 100l30 26l58 -67l-30 -26zM167 2l2 40l87 -4l-2 -40zM302 10l-28 30l65 60l28 -30z" />
    <glyph glyph-name="r" unicode="r" horiz-adv-x="296" 
d="M63 295h40l-2 -88h-40zM61 198h40l-2 -88h-40zM66 399h40l-2 -89h-40zM70 498h40l-2 -88h-40zM178 462l28 -30l-65 -61l-28 30zM63 98h40l-2 -88h-40zM288 498l10 -38l-85 -21l-10 38z" />
    <glyph glyph-name="s" unicode="s" horiz-adv-x="417" 
d="M59 312l22 34l74 -47l-22 -34zM161 255l10 38l84 -23l-10 -38zM60 451h40l-2 -89h-40zM119 443l-14 38l82 32l14 -38zM224 485l16 38l81 -33l-16 -38zM330 448l38 14l29 -83l-38 -14zM277 227l20 34l76 -44l-20 -34zM267 34l2 -40l-87 -3l-2 40zM164 29l-24 -32l-71 50
l24 32zM81 81l-36 -16l-35 81l36 16zM375 74l-16 4l21 85l38 -10l-21 -85l-22 6l14 -38l-82 -32l-14 38z" />
    <glyph glyph-name="t" unicode="t" horiz-adv-x="225" 
d="M74 327h40l-2 -88h-40zM68 222h40l-2 -88h-40zM75 434h40l-2 -89h-40zM77 543h40l-2 -88h-40zM79 644h40l-2 -88h-40zM126 455v40l89 -1v-40zM64 110l38 10l23 -85l-38 -10zM-21 456v40l87 -1v-40zM137 -2v40l89 -1v-40z" />
    <glyph glyph-name="u" unicode="u" horiz-adv-x="428" 
d="M82 57l24 32l70 -56l-24 -32zM63 398h40l-2 -89h-40zM55 182l40 4l7 -88l-40 -4zM58 288h40l-2 -89h-40zM197 -1l-4 40l90 10l4 -40zM318 29l-30 26l60 66l30 -26zM384 297h40l-2 -89h-40zM65 498h40l-2 -89h-40zM385 397h40l-2 -89h-40zM383 198h40l-2 -89h-40zM385 492
h40l-2 -89h-40zM390 92h40l-2 -89h-40z" />
    <glyph glyph-name="v" unicode="v" horiz-adv-x="449" 
d="M136 182l36 16l34 -82l-36 -16zM94 281l36 16l34 -82l-36 -16zM53 383l36 16l34 -82l-36 -16zM173 89l36 16l34 -82l-36 -16zM303 237l36 -16l-34 -79l-36 16zM12 482l36 16l34 -82l-36 -16zM375 413l38 -16l-32 -79l-38 16zM267 147l36 -16l-35 -78l-36 16zM413 500
l38 -16l-32 -79l-38 16zM339 329l38 -16l-32 -79l-38 16z" />
    <glyph glyph-name="w" unicode="w" horiz-adv-x="657" 
d="M88 179l38 12l26 -84l-38 -12zM58 276l38 10l23 -85l-38 -10zM27 374l38 12l26 -86l-38 -12zM118 86l38 10l23 -85l-38 -10zM199 94l40 -8l-16 -84l-40 8zM-7 480l38 10l24 -85l-38 -10zM290 478l38 -10v-1l38 8l20 -84l-40 -8l-18 83l-21 -81l-38 10zM369 277l40 8
l19 -84l-40 -8zM220 192l38 -10l-22 -81l-38 10zM347 372l40 8l19 -84l-40 -8zM414 92l40 8l19 -84l-40 -8zM528 192l38 -12l-26 -82l-38 12zM556 291l38 -12l-25 -83l-38 12zM620 490l38 -12l-26 -82l-38 12zM500 98l38 -12l-25 -81l-38 12zM270 385l38 -10l-21 -83l-38 10
zM245 288l38 -10l-21 -83l-38 10zM391 182l40 8l19 -84l-40 -8zM583 393l38 -12l-26 -82l-38 12z" />
    <glyph glyph-name="x" unicode="x" horiz-adv-x="415" 
d="M257 171l32 22l49 -71l-32 -22zM113 368l34 22l48 -72l-34 -22zM189 269l34 22l46 -73l-34 -22zM333 63l32 24l51 -70l-32 -24zM74 90l32 -22l-48 -70l-32 22zM34 481l34 22l47 -73l-34 -22zM296 393l34 -22l-46 -71l-34 22zM152 203l34 -22l-46 -71l-34 22zM368 499
l34 -22l-45 -72l-34 22z" />
    <glyph glyph-name="y" unicode="y" horiz-adv-x="422" 
d="M61 382l38 14l30 -79l-38 -14zM102 268l38 14l30 -79l-38 -14zM145 158l38 14l30 -79l-38 -14zM345 393l38 -14l-28 -80l-38 14zM20 485l38 14l30 -79l-38 -14zM309 297l38 -14l-28 -80l-38 14zM271 195l38 -14l-28 -80l-38 14zM238 99l38 -14l-28 -80l-38 14zM198 4
l38 -14l-28 -80l-38 14zM161 -92l38 -14l-31 -77l-38 14zM386 493l38 -14l-28 -80l-38 14z" />
    <glyph glyph-name="z" unicode="z" horiz-adv-x="416" 
d="M239 452v40h86v-40h-86zM149 148l-30 26l54 65l30 -26zM12 14v40l86 -2v-40zM32 451v40l86 -2v-40zM217 227l-32 24l51 67l32 -24zM284 309l-32 24l51 67l32 -24zM77 59l-32 24l51 67l32 -24zM354 394l-32 24l51 67l32 -24zM119 9v40l86 -2v-40zM227 7v40l86 -2v-40z
M331 7v40l86 -2v-40zM135 452v40l86 -2v-40z" />
  </font>
</defs>
</svg>
